<svg aria-hidden="true" 
  focusable="false" 
  role="img" 
  xmlns="http://www.w3.org/2000/svg" 
  viewBox="0 0 14 21" 
  fill="currentColor">
  <path d="M7,21 C5.19782359,21 3.78047872,19.7073294 3.78047872,17.8920719 C3.78047872,17.101646 3.97807886,16.4815468 4.42886375,15.5038095 C5.04751046,14.1619854 5.05294882,14.0600792 4.44032669,13.6269617 C4.38049124,13.5846414 4.28177331,13.5150918 4.11252834,13.3957734 C3.97611648,13.2994232 3.86562437,13.2207238 3.756698,13.1420648 C3.47471584,12.938437 3.22827547,12.7527858 2.99121614,12.5630562 C1.07962479,11.0331208 0,9.37697961 0,7.1966949 C0,3.22619884 3.13048102,0 7,0 C10.869519,0 14,3.22619884 14,7.1966949 C14,9.37697961 12.9203752,11.0331208 11.0087839,12.5630562 C10.7717245,12.7527858 10.5252842,12.938437 10.243302,13.1420648 C10.1343756,13.2207238 10.0238835,13.2994232 9.88747166,13.3957734 C9.71822669,13.5150918 9.61950877,13.5846414 9.5595221,13.6270686 C8.94705118,14.0600792 8.95248954,14.1619854 9.57113625,15.5038095 C10.0219211,16.4815468 10.2195213,17.101646 10.2195213,17.8920719 C10.2195213,19.7075057 8.80268737,21 7,21 Z M7,19.0430251 C7.77774821,19.0430251 8.28696127,18.5785 8.28696127,17.8920719 C8.28696127,17.4691346 8.1583258,17.065457 7.82002189,16.3316871 C6.84414193,14.2150361 6.78988946,13.1984305 8.4530682,12.0225804 C9.39452852,11.3567071 9.44441217,11.3206846 9.81045501,11.0277235 C11.3044435,9.83201503 12.06744,8.66158079 12.06744,7.1966949 C12.06744,4.29938745 9.79452426,1.95697488 7,1.95697488 C4.20547574,1.95697488 1.93256002,4.29938745 1.93256002,7.1966949 C1.93256002,8.66158079 2.69555647,9.83201503 4.18954499,11.0277235 C4.55558783,11.3206846 4.60547148,11.3567071 5.54678059,12.0224735 C7.21011054,13.1984305 7.15585807,14.2150361 6.17997811,16.3316871 C5.8416742,17.065457 5.71303873,17.4691346 5.71303873,17.8920719 C5.71303873,18.5782153 6.2226781,19.0430251 7,19.0430251 Z"></path>
</svg>