<svg xmlns="http://www.w3.org/2000/svg" 
  width="438.53" 
  height="438.56" 
  viewBox="0 0 438.53 438.56" 
  fill="currentColor">
  <path d="M414.42,24.13Q390.3,0,356.32,0H82.24q-34,0-58.1,24.13T0,82.23V356.32q0,34,24.13,58.09t58.1,24.13h52.25q-4.86-44,2-72.52l28-118.19q-6.84-14-6.85-34.55,0-23.68,12.14-39.82t29.54-16.14q14,0,21.56,9.28t7.56,23.27a89.07,89.07,0,0,1-3.13,21.27q-3.15,12.42-8.43,29.12t-7.56,26.41q-4,17.13,6.57,29.55t27.69,12.42q30.27,0,49.54-33.69t19.27-81.65q0-36.83-23.85-60t-66.37-23.13q-47.67,0-77.23,30.41t-29.55,73.23q0,25.13,14.27,42.83,4.86,5.42,3.14,12-1.43,4.86-4.28,17.41a8,8,0,0,1-4.14,5.43,8.24,8.24,0,0,1-6.71,0q-22-9.13-33.27-31.41T73.1,208.73a122.5,122.5,0,0,1,6.14-37.84,128.93,128.93,0,0,1,19-36.54,154.24,154.24,0,0,1,30.69-31.27q17.85-13.69,43.69-21.84a184,184,0,0,1,55.52-8.13,149.84,149.84,0,0,1,56.25,10.42q26,10.43,43.54,27.69a128.73,128.73,0,0,1,27.55,39.69,112.65,112.65,0,0,1,10,46.39q0,64.53-32.69,106.64T248.4,346.06a67.26,67.26,0,0,1-32.12-8q-15-8-21-19.13-12.57,50-15.13,59.67-6.57,25.13-30.84,60h207q34,0,58.1-24.13t24.12-58.1V82.23Q438.54,48.26,414.42,24.13Z" />
</svg>