<svg xmlns="http://www.w3.org/2000/svg" 
  width="438.53" 
  height="438.54" 
  viewBox="0 0 438.53 438.54" 
  fill="currentColor">
  <path d="M414.41,24.12Q390.29,0,356.32,0H82.23q-34,0-58.1,24.12T0,82.22V356.31q0,34,24.13,58.1t58.1,24.13H356.31q34,0,58.1-24.13t24.12-58.1V82.22Q438.53,48.26,414.41,24.12ZM335.47,168.74a75.72,75.72,0,0,1,.29,7.71,172.85,172.85,0,0,1-28.41,94.35A180.27,180.27,0,0,1,273,309.92q-20,17-48,27.12A174.53,174.53,0,0,1,165,347.18,168.22,168.22,0,0,1,73.1,320.34a115.35,115.35,0,0,0,14.28.86q41.4,0,74.51-25.7a56.9,56.9,0,0,1-34.68-12,60.89,60.89,0,0,1-21.27-29.69A79.93,79.93,0,0,0,117.07,255a55.83,55.83,0,0,0,14.56-2.28A60,60,0,0,1,96.51,232a57,57,0,0,1-14.27-38.12v-.57q15.12,7.14,28.54,7.42-26-17.42-26-50a59.35,59.35,0,0,1,8.28-30.26,170,170,0,0,0,54.82,44.25A169.67,169.67,0,0,0,217,183.3a55.15,55.15,0,0,1-1.43-13.71,60,60,0,0,1,60-60q26.26,0,43.68,18.85a119.28,119.28,0,0,0,38.26-14.56q-7.12,22-26.55,33.4a127.2,127.2,0,0,0,34.54-9.71A116.62,116.62,0,0,1,335.47,168.74Z" />
</svg>