<svg xmlns="http://www.w3.org/2000/svg" 
  width="20" 
  height="22" 
  viewBox="0 0 20 22" 
  fill="currentColor">
  <path d="M14,13.06c-1.28,0-1.9.69-4,.69s-2.71-.69-4-.69a5.9,5.9,0,0,0-6,5.78v1.1A2.1,2.1,0,0,0,2.14,22H17.86A2.1,2.1,0,0,0,20,19.94v-1.1A5.9,5.9,0,0,0,14,13.06Zm3.86,6.88H2.14v-1.1A3.79,3.79,0,0,1,6,15.13a18.24,18.24,0,0,0,4,.68c2.31,0,3.34-.68,4-.68a3.79,3.79,0,0,1,3.86,3.71ZM10,12.38a6.32,6.32,0,0,0,6.43-6.19A6.31,6.31,0,0,0,10,0,6.31,6.31,0,0,0,3.57,6.19,6.32,6.32,0,0,0,10,12.38ZM10,2.06a4.22,4.22,0,0,1,4.29,4.13A4.22,4.22,0,0,1,10,10.31,4.22,4.22,0,0,1,5.71,6.19,4.22,4.22,0,0,1,10,2.06Z"/>
</svg>
